<svg width="44" height="44" viewBox="0 0 44 44" fill="none" xmlns="http://www.w3.org/2000/svg">
<g filter="url(#filter0_d)">
<path fill-rule="evenodd" clip-rule="evenodd" d="M39.6226 22.2396C39.3938 22.1487 39.1326 22.2056 38.9626 22.3835L36.4001 25.0769V9.07898H36.4031L38.8481 6.43916C39.073 6.19611 39.0582 5.81629 38.8148 5.59136L38.8143 5.59081L37.9343 4.77184L39.1571 3.45193C39.3817 3.2086 39.3666 2.82905 39.1233 2.6044L36.4833 0.15957C36.2402 -0.0653583 35.8606 -0.0508025 35.6357 0.192527L31.3697 4.79848H10.6C10.5981 3.14241 9.25613 1.80053 7.59995 1.79861H7.00009C5.3439 1.80053 4.00192 3.14241 4 4.79848V30.5966C4 30.9278 4.26862 31.1964 4.60013 31.1964H13.6828L12.4227 32.7094C12.2109 32.9642 12.2455 33.3424 12.5001 33.5542L15.2668 35.8575C15.5214 36.0696 15.8998 36.035 16.1119 35.7804L16.1122 35.7801L19.1831 32.0909C19.3951 31.8355 19.5316 31.5254 19.5767 31.1964H30.571L26.965 34.9828C26.7368 35.2229 26.7464 35.6027 26.9864 35.8309C27.0979 35.9369 27.246 35.9962 27.4001 35.996H39.3999C39.7314 35.996 40 35.7274 40 35.3962V22.7971C40 22.5516 39.8506 22.3308 39.6226 22.2396ZM37.5597 6.05832L36.3998 7.31286V6.43045L37.1197 5.65048L37.5597 6.05832ZM35.2 5.96V5.95149H35.2071L36.2385 4.8381L34.4763 3.20785L28.3635 9.81344L30.1257 11.4437L35.2 5.96ZM28.9732 12.011L27.593 12.4136L27.8877 11.0061L28.9732 12.011ZM37.8683 3.07595L36.107 1.44653L35.2915 2.32729L37.0532 3.95836L37.8683 3.07595ZM7.00049 2.99851H7.60034C8.5946 2.99851 9.40045 3.8043 9.40045 4.79849V27.6124C8.88409 27.2153 8.25156 26.9988 7.60034 26.9966H7.00049C6.349 26.9988 5.71674 27.2153 5.20038 27.6124V4.79849C5.20038 3.8043 6.00623 2.99851 7.00049 2.99851ZM7.60034 28.1966H7.00049C6.00623 28.1966 5.20038 29.0027 5.20038 29.9966H9.40045C9.40045 29.0027 8.5946 28.1966 7.60034 28.1966ZM18.2611 31.3235L17.8771 31.7843L16.0328 30.2491L16.4162 29.7877C16.6282 29.5331 17.0064 29.4985 17.261 29.7105C17.2613 29.7105 17.2613 29.7108 17.2616 29.7108L18.1836 30.4765C18.4385 30.6883 18.4734 31.0664 18.2616 31.3213L18.2611 31.3218V31.3235ZM13.7295 33.0162L15.5741 34.5514L17.1094 32.7066L15.2651 31.1711L13.7295 33.0162ZM19.3247 29.9966C19.225 29.8304 19.099 29.6818 18.9515 29.5563L18.0294 28.789C17.2654 28.1529 16.1305 28.2564 15.4944 29.0205L14.6803 29.9966H10.6002V5.99843H30.2597L27.0756 9.43909C27.03 9.49045 26.9937 9.54977 26.9688 9.61376C26.9616 9.63106 26.9561 9.64726 26.9501 9.66539C26.9479 9.67226 26.9451 9.67917 26.9424 9.68616C26.938 9.69735 26.9336 9.70876 26.9308 9.72059L26.2145 13.1451C26.147 13.4694 26.3552 13.7872 26.6795 13.8547C26.7759 13.8748 26.8756 13.8709 26.9698 13.8435L30.33 12.8644C30.3384 12.8617 30.346 12.8579 30.3536 12.8541C30.3602 12.8508 30.3668 12.8476 30.3737 12.8451C30.3888 12.8397 30.4044 12.832 30.4207 12.824C30.4879 12.7935 30.5489 12.7504 30.6006 12.6974L35.2003 7.72672V26.3367L31.7143 29.9966H19.3247ZM28.7997 34.796H38.8V24.2968L28.7997 34.796ZM32.8005 33.5962C32.5577 33.5962 32.3388 33.4501 32.246 33.226C32.1532 33.0019 32.2045 32.7437 32.3762 32.572L36.5763 28.3726C36.6886 28.26 36.8413 28.1968 37.0003 28.1968C37.3316 28.1968 37.6005 28.4651 37.6005 28.7966V32.9964C37.6005 33.3276 37.3318 33.5962 37.0003 33.5962H32.8005ZM36.4003 32.3962V30.2447L34.2486 32.3962H36.4003ZM26.2001 22.7971H30.3999C30.7314 22.7971 31 23.0656 31 23.3969C31 23.7283 30.7314 23.9969 30.4001 23.9969H13.6001C13.2686 23.9969 13 23.7283 13 23.3969C13 23.0656 13.2686 22.7971 13.6001 22.7971H17.7999V16.1975C17.8005 16.0385 17.8634 15.8858 17.9752 15.7726L21.5751 12.173C21.8094 11.9387 22.1892 11.9387 22.4235 12.173L26.0235 15.7726C26.1358 15.8855 26.1992 16.0382 26.2001 16.1975V22.7971ZM24.1521 15.5974L22.0004 13.4459L19.8488 15.5974H24.1521ZM18.9999 16.7974H25.0001V22.7971H18.9999V16.7974ZM21.3997 9.59816H22.6V10.7981H21.3997V9.59816ZM22.6 25.1969H21.3997V26.3968H22.6V25.1969Z" fill="black"/>
</g>
<defs>
<filter id="filter0_d" x="0" y="0" width="44" height="44" filterUnits="userSpaceOnUse" color-interpolation-filters="sRGB">
<feFlood flood-opacity="0" result="BackgroundImageFix"/>
<feColorMatrix in="SourceAlpha" type="matrix" values="0 0 0 0 0 0 0 0 0 0 0 0 0 0 0 0 0 0 127 0"/>
<feOffset dy="4"/>
<feGaussianBlur stdDeviation="2"/>
<feColorMatrix type="matrix" values="0 0 0 0 0 0 0 0 0 0 0 0 0 0 0 0 0 0 0.25 0"/>
<feBlend mode="normal" in2="BackgroundImageFix" result="effect1_dropShadow"/>
<feBlend mode="normal" in="SourceGraphic" in2="effect1_dropShadow" result="shape"/>
</filter>
</defs>
</svg>
